<svg width="1000" height="1000" viewBox="0 0 1000 1000" fill="none" xmlns="http://www.w3.org/2000/svg">
<path d="M500.163 84.9609C270.996 84.9609 83.4961 272.044 83.4961 502.461C83.4961 710.794 235.996 883.711 435.163 914.961V623.294H329.329V502.461H435.163V410.378C435.163 305.794 497.246 248.294 592.663 248.294C638.079 248.294 685.579 256.211 685.579 256.211V359.128H633.079C581.413 359.128 565.163 391.211 565.163 424.128V502.461H680.996L662.246 623.294H565.163V914.961C663.348 899.454 752.755 849.357 817.243 773.713C881.731 698.069 917.052 601.863 916.829 502.461C916.829 272.044 729.329 84.9609 500.163 84.9609Z" fill="white"/>
</svg>
