<svg width="1000" height="1000" viewBox="0 0 1000 1000" fill="none" xmlns="http://www.w3.org/2000/svg">
<path d="M500.127 369.56C428.447 369.56 369.951 428.056 369.951 499.736C369.951 571.416 428.447 629.912 500.127 629.912C571.806 629.912 630.302 571.416 630.302 499.736C630.302 428.056 571.806 369.56 500.127 369.56ZM890.556 499.736C890.556 445.83 891.045 392.412 888.017 338.603C884.99 276.103 870.732 220.635 825.029 174.931C779.228 129.131 723.857 114.97 661.357 111.943C607.451 108.916 554.033 109.404 500.224 109.404C446.318 109.404 392.9 108.916 339.092 111.943C276.592 114.97 221.123 129.228 175.42 174.931C129.619 220.732 115.459 276.103 112.431 338.603C109.404 392.51 109.892 445.927 109.892 499.736C109.892 553.545 109.404 607.06 112.431 660.869C115.459 723.369 129.717 778.838 175.42 824.541C221.22 870.342 276.592 884.502 339.092 887.529C392.998 890.556 446.416 890.068 500.224 890.068C554.131 890.068 607.549 890.556 661.357 887.529C723.857 884.502 779.326 870.244 825.029 824.541C870.83 778.74 884.99 723.369 888.017 660.869C891.142 607.06 890.556 553.642 890.556 499.736V499.736ZM500.127 700.029C389.287 700.029 299.834 610.576 299.834 499.736C299.834 388.896 389.287 299.443 500.127 299.443C610.967 299.443 700.42 388.896 700.42 499.736C700.42 610.576 610.967 700.029 500.127 700.029ZM708.623 338.017C682.744 338.017 661.845 317.119 661.845 291.24C661.845 265.361 682.744 244.463 708.623 244.463C734.502 244.463 755.4 265.361 755.4 291.24C755.408 297.385 754.203 303.471 751.855 309.15C749.507 314.829 746.062 319.989 741.717 324.334C737.371 328.679 732.212 332.124 726.533 334.472C720.854 336.82 714.768 338.025 708.623 338.017V338.017Z" fill="white"/>
</svg>
