<svg width="1000" height="1000" viewBox="0 0 1000 1000" fill="none" xmlns="http://www.w3.org/2000/svg">
<path d="M500 62.5C258.398 62.5 62.5 258.398 62.5 500C62.5 741.602 258.398 937.5 500 937.5C741.602 937.5 937.5 741.602 937.5 500C937.5 258.398 741.602 62.5 500 62.5ZM710.254 392.285C710.547 396.875 710.547 401.66 710.547 406.348C710.547 549.707 601.367 714.844 401.855 714.844C340.332 714.844 283.301 696.973 235.254 666.211C244.043 667.188 252.441 667.578 261.426 667.578C312.207 667.578 358.887 650.391 396.094 621.289C348.438 620.312 308.398 589.062 294.727 546.094C311.426 548.535 326.465 548.535 343.652 544.141C319.114 539.155 297.058 525.828 281.232 506.424C265.406 487.02 256.786 462.735 256.836 437.695V436.328C271.191 444.434 288.086 449.414 305.762 450.098C290.903 440.195 278.717 426.778 270.284 411.038C261.852 395.298 257.434 377.72 257.422 359.863C257.422 339.648 262.695 321.191 272.168 305.176C299.405 338.705 333.392 366.127 371.92 385.661C410.449 405.194 452.657 416.402 495.801 418.555C480.469 344.824 535.547 285.156 601.758 285.156C633.008 285.156 661.133 298.242 680.957 319.336C705.469 314.746 728.906 305.566 749.805 293.262C741.699 318.359 724.707 339.551 702.148 352.93C724.023 350.586 745.117 344.531 764.648 336.035C749.902 357.715 731.445 376.953 710.254 392.285Z" fill="white"/>
</svg>
