<svg width="1000" height="1000" viewBox="0 0 1000 1000" fill="none" xmlns="http://www.w3.org/2000/svg">
<path d="M83.4802 916.341L139.814 709.341C102.694 645.71 83.1925 573.341 83.3135 499.674C83.3135 269.549 269.855 83.0078 499.98 83.0078C730.105 83.0078 916.647 269.549 916.647 499.674C916.647 729.799 730.105 916.341 499.98 916.341C426.346 916.46 354.008 896.973 290.397 859.883L83.4802 916.341ZM349.605 304.174C344.224 304.509 338.967 305.926 334.147 308.341C329.627 310.901 325.501 314.1 321.897 317.841C316.897 322.549 314.064 326.633 311.022 330.591C295.622 350.633 287.339 375.234 287.48 400.508C287.564 420.924 292.897 440.799 301.23 459.383C318.272 496.966 346.314 536.758 383.355 573.633C392.272 582.508 400.98 591.424 410.355 599.716C456.33 640.194 511.116 669.384 570.355 684.966L594.064 688.591C601.772 689.008 609.48 688.424 617.23 688.049C629.365 687.423 641.214 684.137 651.939 678.424C657.395 675.614 662.72 672.555 667.897 669.258C667.897 669.258 669.689 668.091 673.105 665.508C678.73 661.341 682.189 658.383 686.855 653.508C690.314 649.924 693.313 645.716 695.605 640.924C698.855 634.133 702.105 621.174 703.438 610.383C704.438 602.133 704.147 597.633 704.022 594.841C703.855 590.383 700.147 585.758 696.105 583.799L671.855 572.924C671.855 572.924 635.605 557.133 613.48 547.049C611.147 546.033 608.647 545.453 606.105 545.341C603.254 545.048 600.374 545.369 597.657 546.282C594.941 547.195 592.451 548.678 590.355 550.633V550.549C590.147 550.549 587.355 552.924 557.23 589.424C555.501 591.748 553.119 593.504 550.389 594.468C547.658 595.433 544.702 595.563 541.897 594.841C539.182 594.115 536.522 593.196 533.939 592.091C528.772 589.924 526.98 589.091 523.439 587.549L523.23 587.466C499.393 577.059 477.323 563.001 457.814 545.799C452.564 541.216 447.689 536.216 442.689 531.383C426.296 515.684 412.01 497.925 400.189 478.549L397.73 474.591C395.964 471.931 394.537 469.062 393.48 466.049C391.897 459.924 396.022 455.008 396.022 455.008C396.022 455.008 406.147 443.924 410.855 437.924C414.776 432.938 418.433 427.75 421.814 422.383C426.73 414.466 428.272 406.341 425.689 400.049C414.022 371.549 401.939 343.174 389.522 315.008C387.064 309.424 379.772 305.424 373.147 304.633C370.897 304.383 368.647 304.133 366.397 303.966C360.801 303.688 355.194 303.744 349.605 304.133V304.174Z" fill="white"/>
</svg>
